<svg width="48" height="48" viewBox="0 0 48 48" fill="none" xmlns="http://www.w3.org/2000/svg">
<circle cx="24" cy="24" r="24" fill="white"/>
<path d="M16.5797 32.3297V15.6703C16.5797 14.9508 17.3742 14.5172 17.9789 14.9039L31.0008 23.2336C31.561 23.5922 31.561 24.4078 31.0008 24.7664L17.9789 33.0961C17.3742 33.4828 16.5797 33.0492 16.5797 32.3297Z" fill="#264065"/>
<path d="M16.9312 32.3297C16.9312 32.0016 16.9312 31.6711 16.9312 31.343C16.9312 30.5062 16.9312 29.6695 16.9312 28.8328C16.9312 27.6961 16.9312 26.5594 16.9312 25.425C16.9312 24.2062 16.9312 22.9875 16.9312 21.7664C16.9312 20.6789 16.9312 19.5914 16.9312 18.5016C16.9312 17.7586 16.9312 17.018 16.9312 16.275C16.9312 16.1016 16.9312 15.9258 16.9312 15.7523C16.9312 15.7266 16.9312 15.6984 16.9312 15.6726C16.9312 15.6609 16.9312 15.6562 16.9312 15.6398C16.9312 15.6187 16.9336 15.6 16.9359 15.5789C16.9312 15.6539 16.9336 15.5906 16.9383 15.5695C16.95 15.5273 16.9617 15.4851 16.9734 15.4453C16.95 15.5156 16.9664 15.457 16.9781 15.4383C16.9945 15.4101 17.0086 15.382 17.0273 15.3539C17.0367 15.3375 17.0484 15.3234 17.0578 15.3094C17.0156 15.368 17.0437 15.3281 17.0555 15.3164C17.0883 15.2836 17.1187 15.2531 17.1539 15.2226C17.0976 15.2719 17.1398 15.232 17.1586 15.2203C17.1773 15.2086 17.1961 15.1969 17.2172 15.1851C17.2336 15.1758 17.25 15.1687 17.2664 15.1594C17.3344 15.1219 17.2148 15.1734 17.2828 15.1523C17.3273 15.1406 17.3695 15.1266 17.4141 15.1172C17.4937 15.0961 17.3672 15.1101 17.4164 15.1172C17.4375 15.1195 17.4633 15.1148 17.4844 15.1148C17.5031 15.1148 17.5219 15.1148 17.5406 15.1172C17.5453 15.1172 17.632 15.1336 17.5781 15.1195C17.5219 15.1055 17.6133 15.1289 17.6156 15.1289C17.6437 15.1359 17.6719 15.1453 17.6976 15.1547C17.7586 15.1734 17.7094 15.1594 17.6953 15.1523C17.7234 15.1664 17.7492 15.1805 17.775 15.1945C17.7844 15.1992 17.7937 15.2062 17.8008 15.2109C17.8031 15.2133 17.8055 15.2133 17.8078 15.2156C17.8406 15.2367 17.8758 15.2578 17.9086 15.2789C18.0844 15.3914 18.2578 15.5016 18.4336 15.6141C19.1156 16.05 19.8 16.4883 20.482 16.9242C21.443 17.5406 22.4062 18.1547 23.3672 18.7711C24.3867 19.4226 25.4062 20.0766 26.4281 20.7281C27.307 21.2906 28.1836 21.8508 29.0625 22.4133C29.5851 22.7484 30.1078 23.0836 30.6328 23.4164C30.6844 23.4492 30.7336 23.482 30.7851 23.5125C30.7969 23.5195 30.8086 23.5266 30.8203 23.5336C30.8226 23.5336 30.825 23.5359 30.825 23.5359C30.8414 23.5476 30.8601 23.5594 30.8766 23.5711C30.8226 23.5289 30.8742 23.5711 30.8859 23.5828C30.9094 23.6086 30.9328 23.632 30.9562 23.6555C30.9703 23.6695 30.9844 23.707 30.9539 23.6531C30.9633 23.6695 30.975 23.6836 30.9844 23.7C30.9984 23.7234 31.0101 23.7492 31.0242 23.775C31.0336 23.7937 31.0406 23.8336 31.0219 23.768C31.0359 23.8125 31.05 23.8547 31.0617 23.9016C31.0664 23.9203 31.0687 23.9367 31.0711 23.9555C31.057 23.8664 31.0687 23.9508 31.0687 23.9719C31.0687 23.9976 31.057 24.1359 31.0711 24.0422C31.0641 24.0867 31.0547 24.1336 31.0406 24.1758C31.0359 24.1945 31.0289 24.2109 31.0219 24.2273C31.0453 24.1547 31.0289 24.2133 31.0172 24.232C31.0055 24.2531 30.9961 24.2742 30.982 24.293C30.975 24.3023 30.9211 24.3773 30.9703 24.3141C30.9398 24.3516 30.9047 24.3844 30.8695 24.4195C30.8601 24.4289 30.818 24.4617 30.8695 24.4219C30.8508 24.4359 30.8391 24.443 30.818 24.457C30.8156 24.457 30.8156 24.4594 30.8133 24.4594C30.8039 24.4664 30.7922 24.4734 30.7828 24.4781C30.3844 24.7336 29.9859 24.9867 29.5875 25.2422C28.7836 25.7555 27.9797 26.2711 27.1758 26.7844C26.1656 27.4289 25.1578 28.0758 24.1476 28.7203C23.1562 29.3555 22.1625 29.9906 21.1711 30.6258C20.3953 31.1226 19.6195 31.6195 18.8437 32.1141C18.4969 32.3367 18.1523 32.5617 17.8031 32.7797C17.7656 32.8031 17.7281 32.8242 17.6883 32.8453C17.7469 32.8148 17.7047 32.8383 17.6906 32.843C17.6672 32.85 17.6437 32.857 17.6203 32.8641C17.5969 32.8711 17.5734 32.8734 17.55 32.8805C17.6133 32.8617 17.5851 32.8781 17.5594 32.8781C17.5125 32.8805 17.468 32.8805 17.4211 32.8781C17.3555 32.8758 17.4187 32.8781 17.4328 32.8805C17.407 32.8758 17.3789 32.8711 17.3531 32.8641C17.3297 32.8594 17.2289 32.8219 17.2664 32.8383C17.3039 32.8547 17.2055 32.8055 17.1867 32.7937C17.168 32.782 17.1492 32.7656 17.1305 32.7562C17.0859 32.7351 17.1844 32.8101 17.1258 32.7516C17.093 32.7187 17.0601 32.6883 17.0297 32.6531C17.0789 32.707 17.0203 32.6367 17.0039 32.6133C16.9898 32.5898 16.9781 32.5641 16.9641 32.5406C16.9547 32.5219 16.95 32.4844 16.9664 32.5476C16.9547 32.5008 16.9383 32.4562 16.9266 32.4094C16.9219 32.3906 16.9242 32.3461 16.9266 32.4141C16.9336 32.3906 16.9312 32.3601 16.9312 32.3297C16.9289 32.1469 16.7719 31.9687 16.5797 31.9781C16.3922 31.9875 16.2258 32.1328 16.2281 32.3297C16.2351 32.7937 16.4883 33.2414 16.9125 33.45C17.3133 33.6469 17.7773 33.6351 18.1594 33.3984C18.2461 33.3445 18.3328 33.2883 18.4172 33.232C18.9867 32.8687 19.5562 32.5031 20.1258 32.1398C21.0422 31.5539 21.9586 30.968 22.875 30.382C23.9133 29.7164 24.9539 29.0531 25.9922 28.3875C26.9391 27.7828 27.8859 27.1758 28.8328 26.5711C29.4703 26.1633 30.1101 25.7555 30.7476 25.3453C30.8812 25.2609 31.0148 25.1742 31.1484 25.0898C31.275 25.0078 31.3945 24.9141 31.4883 24.7945C31.7953 24.4078 31.8516 23.8945 31.643 23.4469C31.514 23.1726 31.2844 22.9992 31.0406 22.8422C30.8531 22.7226 30.6633 22.6008 30.4758 22.4812C29.7609 22.0242 29.0461 21.5672 28.3336 21.1101C27.3492 20.4797 26.3625 19.8492 25.3781 19.2187C24.3422 18.5578 23.3086 17.8945 22.2726 17.2336C21.4078 16.6805 20.543 16.1273 19.6781 15.5742C19.2047 15.2719 18.7336 14.9695 18.2601 14.6672C17.9391 14.4609 17.5828 14.3555 17.1984 14.4422C16.6055 14.5758 16.2281 15.1219 16.2258 15.7125C16.2258 16.1695 16.2258 16.6242 16.2258 17.0812C16.2258 18.0187 16.2258 18.9562 16.2258 19.8937C16.2258 21.0844 16.2258 22.2726 16.2258 23.4633C16.2258 24.6844 16.2258 25.9078 16.2258 27.1289C16.2258 28.1625 16.2258 29.1961 16.2258 30.232C16.2258 30.8508 16.2258 31.4672 16.2258 32.0859C16.2258 32.168 16.2258 32.25 16.2258 32.3344C16.2258 32.5172 16.3875 32.6953 16.5773 32.6859C16.7695 32.6719 16.9312 32.5266 16.9312 32.3297Z" fill="#264065"/>
</svg>
